<svg xmlns="http://www.w3.org/2000/svg" xmlns:xlink="http://www.w3.org/1999/xlink" version="1.1" x="0px" y="0px" viewBox="0 0 16 20" style="enable-background:new 0 0 16 16;" xml:space="preserve"><path d="M14.808,6h-4.665L8.701,1.563C8.509,0.97,8.254,0.673,8,0.673S7.492,0.97,7.299,1.563L5.857,6H1.192  c-1.249,0-1.443,0.6-0.433,1.333l3.774,2.742l-1.442,4.437c-0.251,0.774-0.122,1.201,0.279,1.201c0.213,0,0.504-0.121,0.856-0.377  L8,12.595l3.773,2.741c0.352,0.256,0.643,0.377,0.856,0.377c0.4,0,0.53-0.427,0.278-1.201l-1.441-4.437l3.774-2.742  C16.25,6.6,16.056,6,14.808,6z M10.291,9.693l1.416,4.358L8,11.358l-3.708,2.693l1.417-4.358L2.001,7h4.582L8,2.642L9.416,7h4.583  L10.291,9.693z"/><text x="0" y="31" fill="#000000" font-size="5px" font-weight="bold" font-family="'Helvetica Neue', Helvetica, Arial-Unicode, Arial, Sans-serif">Created by Rflor</text><text x="0" y="36" fill="#000000" font-size="5px" font-weight="bold" font-family="'Helvetica Neue', Helvetica, Arial-Unicode, Arial, Sans-serif">from the Noun Project</text></svg>