<svg xmlns="http://www.w3.org/2000/svg" xmlns:xlink="http://www.w3.org/1999/xlink" version="1.1" x="0px" y="0px" viewBox="0 0 24 30" enable-background="new 0 0 24 24" xml:space="preserve"><path d="M23.533,9.525c0-0.416-0.445-0.583-0.775-0.637l-6.959-1.012l-3.12-6.308C12.554,1.306,12.319,1,12,1  s-0.554,0.306-0.679,0.569L8.203,7.876l-6.96,1.012C0.897,8.943,0.467,9.11,0.467,9.525c0,0.25,0.179,0.485,0.346,0.666l5.046,4.907  l-1.192,6.931c-0.012,0.098-0.026,0.182-0.026,0.279C4.64,22.667,4.819,23,5.222,23c0.194,0,0.374-0.068,0.554-0.166L12,19.562  l6.225,3.272C18.391,22.932,18.584,23,18.778,23c0.401,0,0.568-0.333,0.568-0.691c0-0.098,0-0.182-0.013-0.279l-1.192-6.931  l5.032-4.907C23.354,10.011,23.533,9.775,23.533,9.525z M15.992,14.401l0.945,5.497L12,17.302l0-12.594l2.471,4.997l5.515,0.801  L15.992,14.401z"/></svg>