<?xml version="1.0" encoding="UTF-8" standalone="no"?>
<svg width="100px" height="100px" viewBox="0 0 100 100" version="1.1" xmlns="http://www.w3.org/2000/svg" xmlns:xlink="http://www.w3.org/1999/xlink" xmlns:sketch="http://www.bohemiancoding.com/sketch/ns">
    <!-- Generator: Sketch 3.3.3 (12081) - http://www.bohemiancoding.com/sketch -->
    <title>Artboard 1</title>
    <desc>Created with Sketch.</desc>
    <defs></defs>
    <g id="Page-1" stroke="none" stroke-width="1" fill="none" fill-rule="evenodd" sketch:type="MSPage">
        <g id="Artboard-1" sketch:type="MSArtboardGroup" fill="#000000">
            <path d="M89.8880625,80.0601132 L64.3228125,50.9245283 L89.8880625,21.7870943 C94.2342292,17.4547547 94.2342292,10.4301887 89.8880625,6.096 C85.5400417,1.76366038 78.4979167,1.76550943 74.1554583,6.09784906 L49.5747708,34.1129057 L24.9940833,6.09784906 C20.6479167,1.76550943 13.6057917,1.76366038 9.25777083,6.096 C4.9153125,10.4301887 4.9153125,17.4547547 9.25777083,21.7870943 L34.8230208,50.9245283 L9.25777083,80.0601132 C4.9153125,84.3924528 4.9153125,91.4151698 9.25591667,95.7493585 C13.6020833,100.083547 20.6442083,100.083547 24.9940833,95.7493585 L49.5747708,67.7324528 L74.1554583,95.7493585 C78.501625,100.083547 85.54375,100.083547 89.8899167,95.7493585 C94.2342292,91.4151698 94.2342292,84.3924528 89.8880625,80.0601132" id="Fill-1" sketch:type="MSShapeGroup"></path>
        </g>
    </g>
</svg>